<?xml version="1.0" encoding="UTF-8"?><svg id="goodav-bimi.svg" xmlns="http://www.w3.org/2000/svg" viewBox="0 0 390.2 387.4"><defs><style>.cls-1,.cls-2{stroke-width:0px;}.cls-2{fill:#fff;}</style></defs><ellipse class="cls-1" cx="195.1" cy="193.7" rx="195.1" ry="193.7"/><path class="cls-2" d="M198,27.7c31.5,0,57.1,26.2,57.1,58.4,0,32.1-25.8,58.1-57.4,58-31.3-.1-56.8-26.2-56.8-58.1,0-32.2,25.6-58.3,57.2-58.3Z"/><path class="cls-2" d="M140.8,193.8c0,32.1-25.7,58.1-57.2,58.1-31.5,0-57.1-26.2-57-58.3,0-32.1,25.7-58.1,57.2-58.1,31.5,0,57,26.2,57,58.3Z"/><path class="cls-2" d="M246.4,193.2c.2-32.1,26.1-58,57.7-57.7,31.4.2,56.8,26.7,56.5,59-.2,31.8-26.1,57.6-57.5,57.5-31.5-.1-56.9-26.5-56.8-58.7Z"/><path class="cls-2" d="M140.8,304.4c0-32,25.9-58,57.6-57.9,31.4.1,56.8,26.5,56.7,58.8-.2,31.7-25.9,57.7-57.3,57.6-31.5,0-57-26.3-56.9-58.5Z"/></svg>