<?xml version="1.0" encoding="UTF-8"?><svg id="Layer_1" xmlns="http://www.w3.org/2000/svg" viewBox="0 0 642.4 151.4"><defs><style>.cls-1{fill:#f6953a;}.cls-1,.cls-2,.cls-3,.cls-4,.cls-5{stroke-width:0px;}.cls-2{fill:#010101;}.cls-3{fill:#fff;}.cls-4{fill:#41964c;}.cls-5{fill:#f04f44;}</style></defs><path class="cls-3" d="M248.3,117.2h-14.3c-.8-2.8-1.2-5.9-1.5-8.9-5,6.7-13.8,10.4-26.3,10.4-26.1,0-40.7-19.7-40.7-45.3s15.7-47.4,44.1-47.4,36.8,13.1,38.9,28.4h-19.4c-1.8-6-6.6-13.1-19.8-13.1s-23.7,15.4-23.7,31.3,6,30.7,23.9,30.7,19.7-11.5,19.7-19.6v-.8h-19.7v-15.9h38.8v50.3Z"/><path class="cls-3" d="M328.6,83.3c0,20.4-12.2,35.5-33.6,35.5s-33.2-14.9-33.2-35.1,12.6-35.6,34-35.6,32.7,14,32.7,35.2ZM280.8,83.5c0,13,5.6,20.7,14.6,20.7s14.2-7.7,14.2-20.6-5.2-20.8-14.5-20.8-14.3,6.4-14.3,20.7Z"/><path class="cls-3" d="M405.1,83.3c0,20.4-12.2,35.5-33.6,35.5s-33.2-14.9-33.2-35.1,12.6-35.6,34-35.6,32.7,14,32.7,35.2ZM357.3,83.5c0,13,5.6,20.7,14.6,20.7s14.2-7.7,14.2-20.6-5.2-20.8-14.5-20.8-14.3,6.4-14.3,20.7Z"/><path class="cls-3" d="M480.7,22v76.7c0,6.1,0,12.4.1,18.6h-18c-.4-2-.7-5.5-.9-7.1-3.3,5.3-9.1,8.6-19.2,8.6-17.1,0-27.9-13.7-27.9-34.8s11.5-35.9,30.7-35.9,14.9,3.4,16.4,6.5V22h18.7ZM434.1,83.5c0,13.2,5.1,20.3,14.3,20.3s14.3-10.7,14.3-20.4-1.6-20.3-13.9-20.3-14.8,7.7-14.8,20.4Z"/><path class="cls-3" d="M517.6,96.4l-7,20.8h-19.1l30.5-89.9h24.4l31.9,89.9h-20.4l-7.4-20.8h-32.9ZM546.3,80.5c-6.4-19-10.5-31.1-12.6-39.2h-.1c-2.2,8.9-6.7,23-11.8,39.2h24.6Z"/><path class="cls-3" d="M595.2,49.7c6.4,22.9,11.8,42.9,13.1,51h.1c1.9-11.1,8.5-31.5,14.4-51h18.6l-23.9,67.5h-19.7l-22.9-67.5h20.1Z"/><ellipse class="cls-2" cx="72.2" cy="71.7" rx="72.2" ry="71.7"/><path class="cls-5" d="M73.3,10.3c11.7,0,21.2,9.7,21.1,21.6,0,11.9-9.6,21.5-21.3,21.5-11.6,0-21-9.7-21-21.5,0-11.9,9.5-21.6,21.2-21.6Z"/><path class="cls-3" d="M52.1,71.7c0,11.9-9.5,21.5-21.2,21.5-11.7,0-21.1-9.7-21.1-21.6,0-11.9,9.5-21.5,21.2-21.5,11.7,0,21.1,9.7,21.1,21.6Z"/><path class="cls-1" d="M91.2,71.5c0-11.9,9.7-21.5,21.4-21.4,11.6,0,21,9.9,20.9,21.8,0,11.8-9.6,21.3-21.3,21.3-11.7,0-21.1-9.8-21-21.7Z"/><path class="cls-4" d="M52.1,112.7c0-11.9,9.6-21.5,21.3-21.4,11.6,0,21,9.8,21,21.8,0,11.8-9.6,21.4-21.2,21.3-11.7,0-21.1-9.7-21.1-21.7Z"/></svg>